<svg width="144" height="30" viewBox="0 0 144 30" fill="none" xmlns="http://www.w3.org/2000/svg">
<path d="M18.32 26.5354C16.28 28.4954 13.85 29.4654 11.01 29.4654C7.96 29.4654 5.36 28.3954 3.22 26.2454C1.07 24.1154 0 21.5154 0 18.4654C0 15.4354 1.07 12.8454 3.21 10.6854C5.35 8.53535 7.95 7.45535 11 7.45535C13.84 7.45535 16.3 8.41535 18.4 10.3254L17.47 11.1454C15.63 9.51535 13.47 8.69535 10.99 8.69535C8.29 8.69535 5.99 9.64535 4.08 11.5554C2.17 13.4554 1.21 15.7654 1.21 18.4554C1.21 21.1654 2.17 23.4654 4.08 25.3754C5.99 27.2854 8.29 28.2354 10.99 28.2354C13.3 28.2354 15.34 27.5254 17.1 26.1054V19.5554H18.3V26.5354H18.32Z" fill="#9A9C9E"/>
<path d="M26.3 29.3953C24.65 29.3953 23.34 28.9053 22.36 27.9353C21.39 26.9653 20.89 25.7353 20.86 24.2453V16.0053H22.08V24.1353C22.08 25.2453 22.48 26.2053 23.3 26.9953C24.1 27.7953 25.1 28.1953 26.29 28.1953C27.4 28.1953 28.37 27.7953 29.17 27.0053C29.98 26.2053 30.38 25.2553 30.38 24.1353V16.0053H31.6V24.2453C31.57 25.7353 31.07 26.9653 30.09 27.9353C29.11 28.9153 27.85 29.3953 26.3 29.3953Z" fill="#9A9C9E"/>
<path d="M48.61 29.2153H47.4V26.5253C47.17 26.8353 46.91 27.1353 46.64 27.4253C45.2 28.8753 43.46 29.5953 41.41 29.5953C39.38 29.5953 37.65 28.8753 36.2 27.4253C34.76 25.9853 34.03 24.2453 34.03 22.2153C34.03 20.1653 34.75 18.4253 36.2 16.9853C37.64 15.5453 39.38 14.8253 41.41 14.8253C43.46 14.8253 45.2 15.5453 46.64 16.9853C46.91 17.2653 47.17 17.5653 47.4 17.8853V16.0153H48.62V29.2153H48.61ZM47.4 23.4053V21.0153C47.18 19.8253 46.62 18.7953 45.73 17.8953C44.53 16.6953 43.1 16.1053 41.41 16.1053C39.73 16.1053 38.29 16.7053 37.1 17.8953C35.91 19.0953 35.31 20.5353 35.31 22.2153C35.31 23.8953 35.91 25.3353 37.1 26.5153C38.29 27.6953 39.73 28.2953 41.41 28.2953C43.09 28.2953 44.53 27.6953 45.73 26.5053C46.62 25.6153 47.17 24.5853 47.4 23.4053Z" fill="#9A9C9E"/>
<path d="M53.14 16.0153V10.4053H54.34V16.0153H57.03V17.2353H54.34V29.2153H53.14V17.2353H50.45V16.0153H53.14Z" fill="#9A9C9E"/>
<path d="M59.63 21.5353C59.6 21.7453 59.58 21.9753 59.58 22.2153C59.58 23.8953 60.18 25.3353 61.37 26.5153C62.56 27.7053 64 28.2953 65.68 28.2953C67.36 28.2953 68.8 27.6953 70 26.5053C70.2 26.3053 70.4 26.0953 70.58 25.8653L71.87 26.3253C71.72 26.5753 71.4 26.9453 70.91 27.4153C69.47 28.8653 67.73 29.5853 65.68 29.5853C63.65 29.5853 61.92 28.8653 60.47 27.4153C59.03 25.9753 58.3 24.2353 58.3 22.2053C58.3 20.1553 59.02 18.4153 60.47 16.9753C61.91 15.5353 63.65 14.8153 65.68 14.8153C67.73 14.8153 69.47 15.5353 70.91 16.9753C72.18 18.2553 72.81 19.7653 72.81 21.5253H59.63V21.5353ZM59.86 20.3053H71.44C71.16 19.3853 70.67 18.5853 70 17.9053C68.8 16.7053 67.37 16.1153 65.68 16.1153C64 16.1153 62.56 16.7153 61.36 17.9053C60.66 18.6253 60.16 19.4253 59.86 20.3053Z" fill="#9A9C9E"/>
<path d="M92.8 26.5353C90.76 28.4953 88.33 29.4653 85.49 29.4653C82.44 29.4653 79.84 28.3953 77.7 26.2453C75.56 24.1053 74.48 21.5053 74.48 18.4553C74.48 15.4253 75.55 12.8353 77.7 10.6753C79.84 8.52534 82.44 7.44534 85.49 7.44534C88.33 7.44534 90.8 8.40534 92.89 10.3153L91.96 11.1353C90.12 9.50534 87.96 8.68534 85.48 8.68534C82.79 8.68534 80.48 9.63534 78.57 11.5453C76.66 13.4453 75.7 15.7553 75.7 18.4453C75.7 21.1553 76.66 23.4553 78.57 25.3653C80.48 27.2753 82.78 28.2253 85.48 28.2253C87.79 28.2253 89.83 27.5153 91.59 26.0953V19.5453H92.79V26.5353H92.8Z" fill="#0E89AF"/>
<path d="M96.13 21.5353C96.1 21.7453 96.08 21.9753 96.08 22.2153C96.08 23.8953 96.68 25.3353 97.87 26.5153C99.06 27.7053 100.5 28.2953 102.18 28.2953C103.86 28.2953 105.3 27.6953 106.5 26.5053C106.7 26.3053 106.9 26.0953 107.08 25.8653L108.37 26.3253C108.22 26.5753 107.9 26.9453 107.41 27.4153C105.97 28.8653 104.23 29.5853 102.18 29.5853C100.15 29.5853 98.42 28.8653 96.97 27.4153C95.53 25.9753 94.8 24.2353 94.8 22.2053C94.8 20.1553 95.52 18.4153 96.97 16.9753C98.41 15.5353 100.15 14.8153 102.18 14.8153C104.23 14.8153 105.97 15.5353 107.41 16.9753C108.68 18.2553 109.31 19.7653 109.31 21.5253H96.13V21.5353ZM96.36 20.3053H107.94C107.66 19.3853 107.18 18.5853 106.5 17.9053C105.3 16.7053 103.86 16.1153 102.18 16.1153C100.5 16.1153 99.06 16.7153 97.86 17.9053C97.15 18.6253 96.65 19.4253 96.36 20.3053Z" fill="#0E89AF"/>
<path d="M111.97 21.5353C111.94 21.7453 111.92 21.9753 111.92 22.2153C111.92 23.8953 112.51 25.3353 113.71 26.5153C114.9 27.7053 116.34 28.2953 118.02 28.2953C119.7 28.2953 121.14 27.6953 122.34 26.5053C122.54 26.3053 122.74 26.0953 122.92 25.8653L124.21 26.3253C124.06 26.5753 123.74 26.9453 123.25 27.4153C121.81 28.8653 120.07 29.5853 118.02 29.5853C115.99 29.5853 114.26 28.8653 112.81 27.4153C111.37 25.9753 110.64 24.2353 110.64 22.2053C110.64 20.1553 111.36 18.4153 112.81 16.9753C114.25 15.5353 115.99 14.8153 118.02 14.8153C120.07 14.8153 121.81 15.5353 123.25 16.9753C124.52 18.2553 125.15 19.7653 125.15 21.5253H111.97V21.5353ZM112.2 20.3053H123.78C123.5 19.3853 123.01 18.5853 122.34 17.9053C121.15 16.7053 119.71 16.1153 118.02 16.1153C116.34 16.1153 114.9 16.7153 113.7 17.9053C112.99 18.6253 112.49 19.4253 112.2 20.3053Z" fill="#0E89AF"/>
<path d="M133.63 16.0153L130.38 20.0453L135.56 29.2153H134.07L129.59 21.0253L128.42 22.4853V29.2153H127.2V10.4153H128.42V20.5553L132.08 16.0253H133.63V16.0153Z" fill="#0E89AF"/>
<path d="M140.27 22.1354C139.25 21.5754 138.54 21.1054 138.14 20.7054C137.52 20.0854 137.21 19.3454 137.21 18.4754C137.21 17.6054 137.52 16.8554 138.14 16.2354C138.76 15.6154 139.5 15.3054 140.38 15.3054C141.25 15.3054 141.98 15.5954 142.55 16.1754C143.11 16.7354 143.39 17.3754 143.39 18.0954V18.1554L142.34 18.5854C142.25 17.9054 142.04 17.3954 141.7 17.0454C141.37 16.7054 140.93 16.5254 140.38 16.5254C139.84 16.5254 139.38 16.7154 139 17.1054C138.61 17.4954 138.42 17.9554 138.42 18.4854C138.42 19.0154 138.61 19.4854 139 19.8654C139.22 20.0954 139.69 20.4454 140.41 20.8954C141.55 21.5154 142.37 22.0654 142.86 22.5554C143.62 23.3254 144 24.2454 144 25.3054C144 26.3954 143.62 27.3254 142.86 28.0954C142.1 28.8654 141.18 29.2454 140.09 29.2454C139 29.2454 138.08 28.8654 137.32 28.0954C136.56 27.3254 136.18 26.4954 136.18 25.5754L137.38 25.2754C137.38 26.0554 137.65 26.7154 138.18 27.2454C138.71 27.7754 139.35 28.0454 140.09 28.0454C140.83 28.0454 141.47 27.7754 142.01 27.2454C142.55 26.7154 142.82 26.0654 142.82 25.3054C142.82 24.5654 142.55 23.9354 142.01 23.4054C141.72 23.1054 141.15 22.6854 140.27 22.1354Z" fill="#0E89AF"/>
<path d="M109.69 9.54534C110.49 13.4353 107.98 17.2253 104.1 18.0153C100.21 18.8153 96.42 16.3053 95.63 12.4153C94.83 8.53534 97.34 4.73534 101.23 3.94534C105.1 3.15534 108.9 5.65534 109.69 9.54534Z" fill="black"/>
<path d="M109.36 9.80533C110.07 13.2953 107.82 16.7053 104.33 17.4153C100.84 18.1253 97.43 15.8753 96.72 12.3853C96 8.89533 98.26 5.49533 101.74 4.77533C105.23 4.06533 108.64 6.31533 109.36 9.80533Z" fill="white"/>
<path d="M114.22 8.61534C115.01 12.4953 118.81 15.0053 122.69 14.2153C126.58 13.4153 129.08 9.62534 128.28 5.74534C127.49 1.86534 123.69 -0.644662 119.81 0.145338C115.93 0.935338 113.43 4.73534 114.22 8.61534Z" fill="black"/>
<path d="M114.63 8.72533C115.34 12.2153 118.75 14.4653 122.24 13.7553C125.73 13.0453 127.98 9.63533 127.27 6.14533C126.56 2.65533 123.15 0.405329 119.66 1.11533C116.17 1.82533 113.92 5.23533 114.63 8.72533Z" fill="white"/>
<path d="M106.79 9.99535C107.05 11.2653 106.23 12.5153 104.96 12.7753C103.69 13.0353 102.44 12.2153 102.18 10.9453C101.92 9.67535 102.74 8.42535 104.01 8.16535C105.28 7.89535 106.53 8.71535 106.79 9.99535Z" fill="black"/>
<path d="M105.77 9.60535C105.85 9.97535 105.61 10.3454 105.23 10.4154C104.86 10.4954 104.49 10.2554 104.42 9.87535C104.34 9.50535 104.58 9.13535 104.96 9.06535C105.33 8.99535 105.69 9.23535 105.77 9.60535Z" fill="white"/>
<path d="M104.49 9.09535C104.51 9.20535 104.44 9.31535 104.33 9.34535C104.22 9.36535 104.11 9.29535 104.08 9.18535C104.06 9.07535 104.13 8.96535 104.24 8.93535C104.35 8.91535 104.46 8.98535 104.49 9.09535Z" fill="white"/>
<path d="M121.62 6.95535C121.88 8.22535 121.06 9.47535 119.78 9.73535C118.51 9.99535 117.26 9.17535 117 7.89535C116.74 6.62535 117.56 5.37535 118.84 5.11535C120.12 4.86535 121.36 5.68535 121.62 6.95535Z" fill="black"/>
<path d="M120.6 6.57536C120.68 6.94536 120.44 7.31536 120.06 7.38536C119.69 7.46536 119.32 7.22536 119.25 6.84536C119.17 6.47536 119.41 6.10536 119.79 6.03536C120.16 5.95536 120.53 6.19536 120.6 6.57536Z" fill="white"/>
<path d="M119.32 6.06534C119.34 6.17534 119.27 6.28534 119.16 6.31534C119.05 6.33534 118.94 6.26534 118.91 6.15534C118.89 6.04534 118.96 5.93534 119.07 5.90534C119.19 5.87534 119.3 5.95534 119.32 6.06534Z" fill="white"/>
<path d="M108.84 7.78534C109.6 7.19534 110.49 6.76534 111.49 6.56534C112.49 6.36534 113.48 6.40534 114.4 6.64534C114.39 6.39534 114.45 6.15534 114.57 5.93534C113.55 5.66534 112.45 5.61534 111.34 5.84534C110.23 6.07534 109.24 6.54534 108.4 7.19534C108.59 7.35534 108.74 7.55534 108.84 7.78534Z" fill="black"/>
</svg>
